<svg xmlns="http://www.w3.org/2000/svg" xmlns:xlink="http://www.w3.org/1999/xlink" fill="none" version="1.1" width="30" height="30" viewBox="0 0 30 30"><defs><clipPath id="master_svg0_6_787"><rect x="0" y="0" width="30" height="30" rx="0"/></clipPath></defs><g clip-path="url(#master_svg0_6_787)"><g transform="matrix(1,0,0,-1,0,61.0546875)"><g><path d="M13.7695,60.05854375Q15,60.52734375,16.2891,60.05854375L27.5391,56.07424375Q28.6523,55.60544375,29.2969,54.66794375Q30,53.73044375,30,52.50004375L30,38.26172375Q30,37.08984375,29.2969,36.15234375Q28.6523,35.15625375,27.5391,34.74609375L16.2891,30.76171875Q15,30.29296875,13.7109,30.76171875L2.46094,34.74609375Q1.34766,35.15625375,0.703125,36.15234375Q0,37.08984375,0,38.32031375L0,52.50004375Q0,53.73044375,0.703125,54.66794375Q1.34766,55.60544375,2.51953,56.07424375L13.7695,60.05854375ZM15,56.54294375L4.80469,52.91014375L15,56.54294375L4.80469,52.91014375L15,49.27734375L25.1953,52.91014375L15,56.54294375ZM16.875,34.92187375L26.25,38.26172375L16.875,34.92187375L26.25,38.26172375L26.25,49.27734375L16.875,45.93754375L16.875,34.92187375Z" fill="#94A3B8" fill-opacity="1" style="mix-blend-mode:passthrough"/></g></g></g></svg>